<mxfile host="app.diagrams.net" modified="2021-07-28T13:13:00.975Z" agent="5.0 (Windows NT 10.0; Win64; x64) AppleWebKit/537.36 (KHTML, like Gecko) Chrome/91.0.4472.164 Safari/537.36" etag="PXFjRVaLlBnF4ZMeaL16" version="14.8.0" type="github">
  <diagram id="C5RBs43oDa-KdzZeNtuy" name="Page-1">
    <mxGraphModel dx="2480" dy="1491" grid="1" gridSize="10" guides="1" tooltips="1" connect="1" arrows="1" fold="1" page="1" pageScale="1" pageWidth="1654" pageHeight="2336" math="0" shadow="0">
      <root>
        <mxCell id="WIyWlLk6GJQsqaUBKTNV-0" />
        <mxCell id="WIyWlLk6GJQsqaUBKTNV-1" parent="WIyWlLk6GJQsqaUBKTNV-0" />
        <mxCell id="5ccJhqDXox4A3Kf87yha-8" value="" style="edgeStyle=orthogonalEdgeStyle;curved=1;rounded=0;orthogonalLoop=1;jettySize=auto;html=1;strokeWidth=2;" edge="1" parent="WIyWlLk6GJQsqaUBKTNV-1" source="5ccJhqDXox4A3Kf87yha-0" target="5ccJhqDXox4A3Kf87yha-3">
          <mxGeometry relative="1" as="geometry" />
        </mxCell>
        <mxCell id="5ccJhqDXox4A3Kf87yha-0" value="&lt;font color=&quot;#000099&quot; face=&quot;Courier New&quot;&gt;&lt;b&gt;&lt;u&gt;START&lt;/u&gt;&lt;/b&gt;&lt;/font&gt;" style="strokeWidth=3;html=1;shape=mxgraph.flowchart.start_1;whiteSpace=wrap;strokeColor=#000099;" vertex="1" parent="WIyWlLk6GJQsqaUBKTNV-1">
          <mxGeometry x="750" y="40" width="100" height="60" as="geometry" />
        </mxCell>
        <mxCell id="5ccJhqDXox4A3Kf87yha-2" style="edgeStyle=orthogonalEdgeStyle;rounded=0;orthogonalLoop=1;jettySize=auto;html=1;entryX=1;entryY=0.5;entryDx=0;entryDy=0;entryPerimeter=0;dashed=1;strokeWidth=2;curved=1;" edge="1" parent="WIyWlLk6GJQsqaUBKTNV-1" source="5ccJhqDXox4A3Kf87yha-1" target="5ccJhqDXox4A3Kf87yha-0">
          <mxGeometry relative="1" as="geometry" />
        </mxCell>
        <mxCell id="5ccJhqDXox4A3Kf87yha-1" value="&lt;p&gt;&lt;font face=&quot;Courier New&quot;&gt;&lt;b&gt;Function&amp;nbsp;&lt;span style=&quot;font-size: 14px&quot;&gt;int _printf(const char * const format, ...)&lt;/span&gt;&lt;/b&gt;&lt;/font&gt;&lt;/p&gt;" style="strokeWidth=2;html=1;shape=mxgraph.flowchart.annotation_2;align=left;labelPosition=right;pointerEvents=1;dashed=1;" vertex="1" parent="WIyWlLk6GJQsqaUBKTNV-1">
          <mxGeometry x="920" y="40" width="70" height="40" as="geometry" />
        </mxCell>
        <mxCell id="5ccJhqDXox4A3Kf87yha-6" style="edgeStyle=orthogonalEdgeStyle;curved=1;rounded=0;orthogonalLoop=1;jettySize=auto;html=1;strokeWidth=2;" edge="1" parent="WIyWlLk6GJQsqaUBKTNV-1" source="5ccJhqDXox4A3Kf87yha-3" target="5ccJhqDXox4A3Kf87yha-4">
          <mxGeometry relative="1" as="geometry" />
        </mxCell>
        <mxCell id="5ccJhqDXox4A3Kf87yha-3" value="&lt;p&gt;&lt;b&gt;&lt;font face=&quot;Courier New&quot; style=&quot;font-size: 12px&quot;&gt;Input:&amp;nbsp;&lt;/font&gt;&lt;/b&gt;&lt;/p&gt;&lt;p&gt;&lt;b&gt;&lt;font face=&quot;Courier New&quot; style=&quot;font-size: 12px&quot;&gt;&lt;span style=&quot;text-align: left&quot;&gt;const char * const format,&lt;/span&gt;&lt;/font&gt;&lt;/b&gt;&lt;/p&gt;&lt;p&gt;&lt;b&gt;&lt;font face=&quot;Courier New&quot; style=&quot;font-size: 12px&quot;&gt;&lt;span style=&quot;text-align: left&quot;&gt;...&lt;/span&gt;&lt;/font&gt;&lt;/b&gt;&lt;/p&gt;" style="shape=parallelogram;html=1;strokeWidth=2;perimeter=parallelogramPerimeter;whiteSpace=wrap;rounded=1;arcSize=12;size=0.23;strokeColor=#CCCC00;" vertex="1" parent="WIyWlLk6GJQsqaUBKTNV-1">
          <mxGeometry x="675" y="150" width="250" height="100" as="geometry" />
        </mxCell>
        <mxCell id="5ccJhqDXox4A3Kf87yha-10" value="" style="edgeStyle=orthogonalEdgeStyle;curved=1;rounded=0;orthogonalLoop=1;jettySize=auto;html=1;strokeWidth=2;" edge="1" parent="WIyWlLk6GJQsqaUBKTNV-1" source="5ccJhqDXox4A3Kf87yha-4" target="5ccJhqDXox4A3Kf87yha-9">
          <mxGeometry relative="1" as="geometry" />
        </mxCell>
        <mxCell id="5ccJhqDXox4A3Kf87yha-4" value="&lt;p&gt;&lt;font face=&quot;Courier New&quot;&gt;Declare and Initialize:&lt;br&gt;&lt;/font&gt;&lt;font face=&quot;Courier New&quot;&gt;int&amp;nbsp; &lt;b&gt;i&lt;/b&gt;, &lt;b&gt;j&lt;/b&gt;, &lt;b&gt;counter&lt;/b&gt; and &lt;b&gt;size&lt;/b&gt;, all equal to zero&lt;/font&gt;&lt;font face=&quot;Courier New&quot;&gt;&lt;br&gt;&lt;/font&gt;&lt;font face=&quot;Courier New&quot;&gt;Declare&lt;br&gt;&lt;/font&gt;&lt;font face=&quot;Courier New&quot;&gt;char &lt;b&gt;special_char&lt;/b&gt; and &lt;b&gt;*printbuffer&lt;br&gt;&lt;/b&gt;&lt;/font&gt;&lt;font face=&quot;Courier New&quot;&gt;va_list &lt;b&gt;list&lt;/b&gt;&lt;/font&gt;&lt;/p&gt;" style="rounded=1;whiteSpace=wrap;html=1;absoluteArcSize=1;arcSize=14;strokeWidth=2;strokeColor=#00CCCC;" vertex="1" parent="WIyWlLk6GJQsqaUBKTNV-1">
          <mxGeometry x="625" y="290" width="350" height="110" as="geometry" />
        </mxCell>
        <mxCell id="5ccJhqDXox4A3Kf87yha-13" value="TRUE" style="edgeStyle=orthogonalEdgeStyle;curved=1;rounded=0;orthogonalLoop=1;jettySize=auto;html=1;strokeWidth=2;fontColor=#CC0000;align=left;fontStyle=1" edge="1" parent="WIyWlLk6GJQsqaUBKTNV-1">
          <mxGeometry x="-0.1667" y="15" relative="1" as="geometry">
            <mxPoint x="900" y="535" as="sourcePoint" />
            <mxPoint x="1020" y="535" as="targetPoint" />
            <Array as="points">
              <mxPoint x="960" y="535" />
              <mxPoint x="960" y="535" />
            </Array>
            <mxPoint as="offset" />
          </mxGeometry>
        </mxCell>
        <mxCell id="5ccJhqDXox4A3Kf87yha-18" value="&lt;b&gt;FALSE&lt;/b&gt;" style="edgeStyle=orthogonalEdgeStyle;curved=1;rounded=0;orthogonalLoop=1;jettySize=auto;html=1;fontColor=#CC0000;strokeWidth=2;align=left;" edge="1" parent="WIyWlLk6GJQsqaUBKTNV-1" source="5ccJhqDXox4A3Kf87yha-9" target="5ccJhqDXox4A3Kf87yha-17">
          <mxGeometry relative="1" as="geometry" />
        </mxCell>
        <mxCell id="5ccJhqDXox4A3Kf87yha-9" value="&lt;p&gt;&lt;font face=&quot;Courier New&quot;&gt;Is &lt;i&gt;&lt;b&gt;format&lt;/b&gt;&lt;/i&gt; or &lt;i&gt;&lt;b&gt;list&lt;/b&gt;&lt;/i&gt; NULL?&lt;br&gt;&lt;/font&gt;&lt;font face=&quot;Courier New&quot;&gt;or Is &lt;b&gt;&lt;i&gt;format&lt;/i&gt;&lt;/b&gt; = % ?&lt;/font&gt;&lt;/p&gt;" style="strokeWidth=2;html=1;shape=mxgraph.flowchart.decision;whiteSpace=wrap;strokeColor=#990000;" vertex="1" parent="WIyWlLk6GJQsqaUBKTNV-1">
          <mxGeometry x="700" y="450" width="200" height="170" as="geometry" />
        </mxCell>
        <mxCell id="5ccJhqDXox4A3Kf87yha-16" value="" style="edgeStyle=orthogonalEdgeStyle;curved=1;rounded=0;orthogonalLoop=1;jettySize=auto;html=1;strokeWidth=2;" edge="1" parent="WIyWlLk6GJQsqaUBKTNV-1" source="5ccJhqDXox4A3Kf87yha-11" target="5ccJhqDXox4A3Kf87yha-15">
          <mxGeometry relative="1" as="geometry" />
        </mxCell>
        <mxCell id="5ccJhqDXox4A3Kf87yha-11" value="&lt;font face=&quot;Courier New&quot;&gt;Return Error&lt;/font&gt;" style="rounded=1;whiteSpace=wrap;html=1;absoluteArcSize=1;arcSize=14;strokeWidth=2;strokeColor=#00CCCC;" vertex="1" parent="WIyWlLk6GJQsqaUBKTNV-1">
          <mxGeometry x="1020" y="485" width="100" height="100" as="geometry" />
        </mxCell>
        <mxCell id="5ccJhqDXox4A3Kf87yha-15" value="&lt;font color=&quot;#66cc00&quot;&gt;&lt;b&gt;&lt;u&gt;END&lt;/u&gt;&lt;/b&gt;&lt;/font&gt;" style="strokeWidth=2;html=1;shape=mxgraph.flowchart.terminator;whiteSpace=wrap;strokeColor=#13B807;" vertex="1" parent="WIyWlLk6GJQsqaUBKTNV-1">
          <mxGeometry x="1210" y="505" width="100" height="60" as="geometry" />
        </mxCell>
        <mxCell id="5ccJhqDXox4A3Kf87yha-26" value="" style="edgeStyle=orthogonalEdgeStyle;curved=1;rounded=0;orthogonalLoop=1;jettySize=auto;html=1;fontColor=#CC0000;strokeWidth=2;align=left;" edge="1" parent="WIyWlLk6GJQsqaUBKTNV-1" source="5ccJhqDXox4A3Kf87yha-17" target="5ccJhqDXox4A3Kf87yha-21">
          <mxGeometry relative="1" as="geometry" />
        </mxCell>
        <mxCell id="5ccJhqDXox4A3Kf87yha-17" value="&lt;p&gt;&lt;font face=&quot;Courier New&quot;&gt;Initialize:&lt;br&gt;&lt;/font&gt;&lt;font face=&quot;Courier New&quot;&gt;&lt;b&gt;va_start &lt;/b&gt;whit list and format&lt;br&gt;&lt;/font&gt;&lt;font face=&quot;Courier New&quot;&gt;Set:&lt;br&gt;&lt;/font&gt;&lt;font face=&quot;Courier New&quot;&gt;&lt;b&gt;Size &lt;/b&gt;is the format length&lt;br&gt;&lt;/font&gt;&lt;font face=&quot;Courier New&quot;&gt;&lt;b&gt;printbuffer &lt;/b&gt;is a space in memory sized by size and type char&lt;/font&gt;&lt;/p&gt;" style="rounded=1;whiteSpace=wrap;html=1;absoluteArcSize=1;arcSize=14;strokeWidth=2;strokeColor=#00CCCC;" vertex="1" parent="WIyWlLk6GJQsqaUBKTNV-1">
          <mxGeometry x="670" y="660" width="260" height="100" as="geometry" />
        </mxCell>
        <mxCell id="5ccJhqDXox4A3Kf87yha-28" value="&lt;b&gt;FALSE&lt;/b&gt;" style="edgeStyle=orthogonalEdgeStyle;curved=1;rounded=0;orthogonalLoop=1;jettySize=auto;html=1;fontColor=#CC0000;strokeWidth=2;align=left;" edge="1" parent="WIyWlLk6GJQsqaUBKTNV-1" source="5ccJhqDXox4A3Kf87yha-21" target="5ccJhqDXox4A3Kf87yha-27">
          <mxGeometry relative="1" as="geometry" />
        </mxCell>
        <mxCell id="5ccJhqDXox4A3Kf87yha-21" value="&lt;p&gt;&lt;font face=&quot;Courier New&quot;&gt;Is &lt;b&gt;&lt;i&gt;printbuffer NULL&lt;/i&gt;&lt;/b&gt;?&lt;/font&gt;&lt;br&gt;&lt;/p&gt;" style="strokeWidth=2;html=1;shape=mxgraph.flowchart.decision;whiteSpace=wrap;strokeColor=#990000;" vertex="1" parent="WIyWlLk6GJQsqaUBKTNV-1">
          <mxGeometry x="700" y="810" width="200" height="170" as="geometry" />
        </mxCell>
        <mxCell id="5ccJhqDXox4A3Kf87yha-22" value="TRUE" style="edgeStyle=orthogonalEdgeStyle;curved=1;rounded=0;orthogonalLoop=1;jettySize=auto;html=1;strokeWidth=2;fontColor=#CC0000;align=left;fontStyle=1;entryX=0;entryY=0.5;entryDx=0;entryDy=0;" edge="1" parent="WIyWlLk6GJQsqaUBKTNV-1" source="5ccJhqDXox4A3Kf87yha-21" target="5ccJhqDXox4A3Kf87yha-24">
          <mxGeometry x="-0.3846" y="15" relative="1" as="geometry">
            <mxPoint x="900" y="895" as="sourcePoint" />
            <mxPoint x="1020" y="895" as="targetPoint" />
            <Array as="points" />
            <mxPoint as="offset" />
          </mxGeometry>
        </mxCell>
        <mxCell id="5ccJhqDXox4A3Kf87yha-23" value="" style="edgeStyle=orthogonalEdgeStyle;curved=1;rounded=0;orthogonalLoop=1;jettySize=auto;html=1;strokeWidth=2;" edge="1" parent="WIyWlLk6GJQsqaUBKTNV-1" source="5ccJhqDXox4A3Kf87yha-24" target="5ccJhqDXox4A3Kf87yha-25">
          <mxGeometry relative="1" as="geometry" />
        </mxCell>
        <mxCell id="5ccJhqDXox4A3Kf87yha-24" value="&lt;font face=&quot;Courier New&quot;&gt;Return Error&lt;/font&gt;" style="rounded=1;whiteSpace=wrap;html=1;absoluteArcSize=1;arcSize=14;strokeWidth=2;strokeColor=#00CCCC;" vertex="1" parent="WIyWlLk6GJQsqaUBKTNV-1">
          <mxGeometry x="1030" y="845" width="100" height="100" as="geometry" />
        </mxCell>
        <mxCell id="5ccJhqDXox4A3Kf87yha-25" value="&lt;font color=&quot;#66cc00&quot;&gt;&lt;b&gt;&lt;u&gt;END&lt;/u&gt;&lt;/b&gt;&lt;/font&gt;" style="strokeWidth=2;html=1;shape=mxgraph.flowchart.terminator;whiteSpace=wrap;strokeColor=#13B807;" vertex="1" parent="WIyWlLk6GJQsqaUBKTNV-1">
          <mxGeometry x="1210" y="865" width="100" height="60" as="geometry" />
        </mxCell>
        <mxCell id="5ccJhqDXox4A3Kf87yha-27" value="&lt;p&gt;&lt;font face=&quot;Courier New&quot;&gt;Is i &amp;lt; size?&lt;/font&gt;&lt;/p&gt;" style="strokeWidth=2;html=1;shape=mxgraph.flowchart.decision;whiteSpace=wrap;strokeColor=#990000;" vertex="1" parent="WIyWlLk6GJQsqaUBKTNV-1">
          <mxGeometry x="700" y="1010" width="200" height="170" as="geometry" />
        </mxCell>
        <mxCell id="5ccJhqDXox4A3Kf87yha-31" value="TRUE" style="edgeStyle=orthogonalEdgeStyle;curved=1;rounded=0;orthogonalLoop=1;jettySize=auto;html=1;strokeWidth=2;fontColor=#CC0000;align=left;fontStyle=1;entryX=0;entryY=0.5;entryDx=0;entryDy=0;entryPerimeter=0;" edge="1" parent="WIyWlLk6GJQsqaUBKTNV-1" target="5ccJhqDXox4A3Kf87yha-43">
          <mxGeometry x="-0.5" y="15" relative="1" as="geometry">
            <mxPoint x="900" y="1095" as="sourcePoint" />
            <mxPoint x="1020" y="1095" as="targetPoint" />
            <Array as="points" />
            <mxPoint as="offset" />
          </mxGeometry>
        </mxCell>
        <mxCell id="5ccJhqDXox4A3Kf87yha-42" value="" style="edgeStyle=orthogonalEdgeStyle;curved=1;rounded=0;orthogonalLoop=1;jettySize=auto;html=1;fontColor=#CC0000;strokeWidth=2;align=left;" edge="1" parent="WIyWlLk6GJQsqaUBKTNV-1" source="5ccJhqDXox4A3Kf87yha-32" target="5ccJhqDXox4A3Kf87yha-41">
          <mxGeometry relative="1" as="geometry" />
        </mxCell>
        <mxCell id="5ccJhqDXox4A3Kf87yha-32" value="&lt;font face=&quot;Courier New&quot;&gt;Call &lt;b&gt;va_end&lt;/b&gt;&lt;br&gt;Free memory of &lt;b&gt;printbuffer&lt;/b&gt;&lt;br&gt;Return &lt;b&gt;counter&lt;/b&gt;&lt;br&gt;&lt;/font&gt;" style="rounded=1;whiteSpace=wrap;html=1;absoluteArcSize=1;arcSize=14;strokeWidth=2;strokeColor=#00CCCC;" vertex="1" parent="WIyWlLk6GJQsqaUBKTNV-1">
          <mxGeometry x="1240" y="1045" width="200" height="100" as="geometry" />
        </mxCell>
        <mxCell id="5ccJhqDXox4A3Kf87yha-35" style="edgeStyle=orthogonalEdgeStyle;curved=1;rounded=0;orthogonalLoop=1;jettySize=auto;html=1;dashed=1;fontColor=#CC0000;strokeWidth=2;align=left;entryX=0;entryY=0.5;entryDx=0;entryDy=0;entryPerimeter=0;exitX=0;exitY=0.5;exitDx=0;exitDy=0;exitPerimeter=0;" edge="1" parent="WIyWlLk6GJQsqaUBKTNV-1" source="5ccJhqDXox4A3Kf87yha-37" target="5ccJhqDXox4A3Kf87yha-27">
          <mxGeometry relative="1" as="geometry">
            <mxPoint x="645" y="1040" as="sourcePoint" />
            <mxPoint x="630" y="810" as="targetPoint" />
          </mxGeometry>
        </mxCell>
        <mxCell id="5ccJhqDXox4A3Kf87yha-37" value="&lt;p&gt;&lt;font face=&quot;Courier New&quot; color=&quot;#000000&quot;&gt;&lt;b&gt;For loop conditional&amp;nbsp;&amp;nbsp;&lt;/b&gt;&lt;/font&gt;&lt;/p&gt;" style="strokeWidth=2;html=1;shape=mxgraph.flowchart.annotation_2;align=right;labelPosition=left;pointerEvents=1;fontColor=#CC0000;verticalLabelPosition=middle;verticalAlign=middle;textDirection=ltr;direction=west;dashed=1;" vertex="1" parent="WIyWlLk6GJQsqaUBKTNV-1">
          <mxGeometry x="560" y="980" width="50" height="100" as="geometry" />
        </mxCell>
        <mxCell id="5ccJhqDXox4A3Kf87yha-41" value="&lt;font color=&quot;#66cc00&quot;&gt;&lt;b&gt;&lt;u&gt;END&lt;/u&gt;&lt;/b&gt;&lt;/font&gt;" style="strokeWidth=2;html=1;shape=mxgraph.flowchart.terminator;whiteSpace=wrap;strokeColor=#13B807;" vertex="1" parent="WIyWlLk6GJQsqaUBKTNV-1">
          <mxGeometry x="1490" y="1065" width="100" height="60" as="geometry" />
        </mxCell>
        <mxCell id="5ccJhqDXox4A3Kf87yha-44" value="&lt;b&gt;TRUE&lt;/b&gt;" style="edgeStyle=orthogonalEdgeStyle;curved=1;rounded=0;orthogonalLoop=1;jettySize=auto;html=1;fontColor=#CC0000;strokeWidth=2;align=left;" edge="1" parent="WIyWlLk6GJQsqaUBKTNV-1" source="5ccJhqDXox4A3Kf87yha-43" target="5ccJhqDXox4A3Kf87yha-32">
          <mxGeometry x="-0.6667" y="15" relative="1" as="geometry">
            <mxPoint as="offset" />
          </mxGeometry>
        </mxCell>
        <mxCell id="5ccJhqDXox4A3Kf87yha-47" value="&lt;b&gt;FALSE&lt;/b&gt;" style="edgeStyle=orthogonalEdgeStyle;curved=1;rounded=0;orthogonalLoop=1;jettySize=auto;html=1;fontColor=#CC0000;strokeWidth=2;align=left;" edge="1" parent="WIyWlLk6GJQsqaUBKTNV-1" source="5ccJhqDXox4A3Kf87yha-43" target="5ccJhqDXox4A3Kf87yha-45">
          <mxGeometry relative="1" as="geometry" />
        </mxCell>
        <mxCell id="5ccJhqDXox4A3Kf87yha-43" value="&lt;p&gt;&lt;font face=&quot;Courier New&quot;&gt;Is printbuffer empty?&lt;/font&gt;&lt;/p&gt;" style="strokeWidth=2;html=1;shape=mxgraph.flowchart.decision;whiteSpace=wrap;strokeColor=#990000;" vertex="1" parent="WIyWlLk6GJQsqaUBKTNV-1">
          <mxGeometry x="980" y="1010" width="200" height="170" as="geometry" />
        </mxCell>
        <mxCell id="5ccJhqDXox4A3Kf87yha-49" style="edgeStyle=orthogonalEdgeStyle;curved=1;rounded=0;orthogonalLoop=1;jettySize=auto;html=1;entryX=0;entryY=0.5;entryDx=0;entryDy=0;fontColor=#CC0000;strokeWidth=2;align=left;" edge="1" parent="WIyWlLk6GJQsqaUBKTNV-1" source="5ccJhqDXox4A3Kf87yha-45" target="5ccJhqDXox4A3Kf87yha-32">
          <mxGeometry relative="1" as="geometry" />
        </mxCell>
        <mxCell id="5ccJhqDXox4A3Kf87yha-45" value="&lt;font face=&quot;Courier New&quot;&gt;Prints content of printbuffer&lt;br&gt;&lt;/font&gt;" style="rounded=1;whiteSpace=wrap;html=1;absoluteArcSize=1;arcSize=14;strokeWidth=2;strokeColor=#00CCCC;" vertex="1" parent="WIyWlLk6GJQsqaUBKTNV-1">
          <mxGeometry x="980" y="1220" width="200" height="100" as="geometry" />
        </mxCell>
        <mxCell id="5ccJhqDXox4A3Kf87yha-60" value="" style="edgeStyle=orthogonalEdgeStyle;curved=1;rounded=0;orthogonalLoop=1;jettySize=auto;html=1;fontColor=#CC0000;strokeWidth=2;align=left;" edge="1" parent="WIyWlLk6GJQsqaUBKTNV-1" source="5ccJhqDXox4A3Kf87yha-50" target="5ccJhqDXox4A3Kf87yha-56">
          <mxGeometry relative="1" as="geometry" />
        </mxCell>
        <mxCell id="5ccJhqDXox4A3Kf87yha-50" value="&lt;font face=&quot;Courier New&quot;&gt;Set &lt;b&gt;special_char &lt;/b&gt;with &lt;b&gt;formant &lt;/b&gt;content on i&lt;br&gt;&lt;/font&gt;" style="rounded=1;whiteSpace=wrap;html=1;absoluteArcSize=1;arcSize=14;strokeWidth=2;strokeColor=#00CCCC;" vertex="1" parent="WIyWlLk6GJQsqaUBKTNV-1">
          <mxGeometry x="700" y="1220" width="200" height="100" as="geometry" />
        </mxCell>
        <mxCell id="5ccJhqDXox4A3Kf87yha-51" value="&lt;b&gt;FALSE&lt;/b&gt;" style="edgeStyle=orthogonalEdgeStyle;curved=1;rounded=0;orthogonalLoop=1;jettySize=auto;html=1;fontColor=#CC0000;strokeWidth=2;align=left;exitX=0.5;exitY=1;exitDx=0;exitDy=0;exitPerimeter=0;entryX=0.5;entryY=0;entryDx=0;entryDy=0;" edge="1" parent="WIyWlLk6GJQsqaUBKTNV-1" source="5ccJhqDXox4A3Kf87yha-27" target="5ccJhqDXox4A3Kf87yha-50">
          <mxGeometry relative="1" as="geometry">
            <mxPoint x="1090" y="1190" as="sourcePoint" />
            <mxPoint x="1090" y="1230" as="targetPoint" />
          </mxGeometry>
        </mxCell>
        <mxCell id="5ccJhqDXox4A3Kf87yha-52" value="_printmod" style="verticalLabelPosition=bottom;verticalAlign=top;html=1;shape=mxgraph.flowchart.on-page_reference;fontColor=#CC0000;strokeWidth=3;strokeColor=#99004D;" vertex="1" parent="WIyWlLk6GJQsqaUBKTNV-1">
          <mxGeometry x="1260" y="1672.5" width="70" height="65" as="geometry" />
        </mxCell>
        <mxCell id="5ccJhqDXox4A3Kf87yha-61" style="edgeStyle=orthogonalEdgeStyle;curved=1;rounded=0;orthogonalLoop=1;jettySize=auto;html=1;entryX=0.5;entryY=0;entryDx=0;entryDy=0;entryPerimeter=0;fontColor=#CC0000;strokeWidth=2;align=left;exitX=0.5;exitY=1;exitDx=0;exitDy=0;" edge="1" parent="WIyWlLk6GJQsqaUBKTNV-1" source="5ccJhqDXox4A3Kf87yha-53" target="5ccJhqDXox4A3Kf87yha-70">
          <mxGeometry relative="1" as="geometry">
            <Array as="points">
              <mxPoint x="1060" y="1570" />
              <mxPoint x="801" y="1570" />
            </Array>
          </mxGeometry>
        </mxCell>
        <mxCell id="5ccJhqDXox4A3Kf87yha-53" value="&lt;font face=&quot;Courier New&quot;&gt;Increase counter&lt;br&gt;Add the character to printbuffer&lt;br&gt;Increase j&lt;br&gt;&lt;/font&gt;" style="rounded=1;whiteSpace=wrap;html=1;absoluteArcSize=1;arcSize=14;strokeWidth=2;strokeColor=#00CCCC;" vertex="1" parent="WIyWlLk6GJQsqaUBKTNV-1">
          <mxGeometry x="960" y="1425" width="200" height="100" as="geometry" />
        </mxCell>
        <mxCell id="5ccJhqDXox4A3Kf87yha-54" value="&lt;b&gt;TRUE&lt;/b&gt;" style="edgeStyle=orthogonalEdgeStyle;curved=1;rounded=0;orthogonalLoop=1;jettySize=auto;html=1;fontColor=#CC0000;strokeWidth=2;align=left;" edge="1" parent="WIyWlLk6GJQsqaUBKTNV-1" source="5ccJhqDXox4A3Kf87yha-56" target="5ccJhqDXox4A3Kf87yha-53">
          <mxGeometry x="-0.6667" y="15" relative="1" as="geometry">
            <mxPoint as="offset" />
          </mxGeometry>
        </mxCell>
        <mxCell id="5ccJhqDXox4A3Kf87yha-55" value="&lt;b&gt;FALSE&lt;/b&gt;" style="edgeStyle=orthogonalEdgeStyle;curved=1;rounded=0;orthogonalLoop=1;jettySize=auto;html=1;fontColor=#CC0000;strokeWidth=2;align=left;entryX=0.5;entryY=0;entryDx=0;entryDy=0;entryPerimeter=0;" edge="1" parent="WIyWlLk6GJQsqaUBKTNV-1" source="5ccJhqDXox4A3Kf87yha-56" target="5ccJhqDXox4A3Kf87yha-70">
          <mxGeometry relative="1" as="geometry">
            <mxPoint x="800.0588235294119" y="1600" as="targetPoint" />
          </mxGeometry>
        </mxCell>
        <mxCell id="5ccJhqDXox4A3Kf87yha-56" value="&lt;p&gt;&lt;font face=&quot;Courier New&quot;&gt;Is special_char different from &#39;%&#39; or &#39;\&#39; ?&lt;/font&gt;&lt;/p&gt;" style="strokeWidth=2;html=1;shape=mxgraph.flowchart.decision;whiteSpace=wrap;strokeColor=#990000;" vertex="1" parent="WIyWlLk6GJQsqaUBKTNV-1">
          <mxGeometry x="701" y="1390" width="200" height="170" as="geometry" />
        </mxCell>
        <mxCell id="5ccJhqDXox4A3Kf87yha-66" style="edgeStyle=orthogonalEdgeStyle;curved=1;rounded=0;orthogonalLoop=1;jettySize=auto;html=1;entryX=0.5;entryY=0;entryDx=0;entryDy=0;entryPerimeter=0;fontColor=#CC0000;strokeWidth=2;align=left;exitX=0.5;exitY=1;exitDx=0;exitDy=0;" edge="1" parent="WIyWlLk6GJQsqaUBKTNV-1" source="5ccJhqDXox4A3Kf87yha-67" target="5ccJhqDXox4A3Kf87yha-75">
          <mxGeometry relative="1" as="geometry">
            <Array as="points">
              <mxPoint x="1060" y="1790" />
              <mxPoint x="801" y="1790" />
            </Array>
          </mxGeometry>
        </mxCell>
        <mxCell id="5ccJhqDXox4A3Kf87yha-76" value="" style="edgeStyle=orthogonalEdgeStyle;curved=1;rounded=0;orthogonalLoop=1;jettySize=auto;html=1;fontColor=#CC0000;strokeWidth=2;align=left;" edge="1" parent="WIyWlLk6GJQsqaUBKTNV-1" source="5ccJhqDXox4A3Kf87yha-67" target="5ccJhqDXox4A3Kf87yha-52">
          <mxGeometry relative="1" as="geometry" />
        </mxCell>
        <mxCell id="5ccJhqDXox4A3Kf87yha-67" value="&lt;font face=&quot;Courier New&quot;&gt;Call _printmod&lt;br&gt;Increase i&lt;br&gt;&lt;/font&gt;" style="rounded=1;whiteSpace=wrap;html=1;absoluteArcSize=1;arcSize=14;strokeWidth=2;strokeColor=#00CCCC;" vertex="1" parent="WIyWlLk6GJQsqaUBKTNV-1">
          <mxGeometry x="960" y="1655" width="200" height="100" as="geometry" />
        </mxCell>
        <mxCell id="5ccJhqDXox4A3Kf87yha-68" value="&lt;b&gt;TRUE&lt;/b&gt;" style="edgeStyle=orthogonalEdgeStyle;curved=1;rounded=0;orthogonalLoop=1;jettySize=auto;html=1;fontColor=#CC0000;strokeWidth=2;align=left;" edge="1" parent="WIyWlLk6GJQsqaUBKTNV-1" source="5ccJhqDXox4A3Kf87yha-70" target="5ccJhqDXox4A3Kf87yha-67">
          <mxGeometry x="-0.6667" y="15" relative="1" as="geometry">
            <mxPoint as="offset" />
          </mxGeometry>
        </mxCell>
        <mxCell id="5ccJhqDXox4A3Kf87yha-69" value="&lt;b&gt;FALSE&lt;/b&gt;" style="edgeStyle=orthogonalEdgeStyle;curved=1;rounded=0;orthogonalLoop=1;jettySize=auto;html=1;fontColor=#CC0000;strokeWidth=2;align=left;entryX=0.5;entryY=0;entryDx=0;entryDy=0;entryPerimeter=0;" edge="1" parent="WIyWlLk6GJQsqaUBKTNV-1" source="5ccJhqDXox4A3Kf87yha-70" target="5ccJhqDXox4A3Kf87yha-75">
          <mxGeometry relative="1" as="geometry">
            <mxPoint x="800.0588235294119" y="1840" as="targetPoint" />
          </mxGeometry>
        </mxCell>
        <mxCell id="5ccJhqDXox4A3Kf87yha-70" value="&lt;p&gt;&lt;font face=&quot;Courier New&quot;&gt;Is special_char equal to &#39;%&#39;?&lt;/font&gt;&lt;/p&gt;" style="strokeWidth=2;html=1;shape=mxgraph.flowchart.decision;whiteSpace=wrap;strokeColor=#990000;" vertex="1" parent="WIyWlLk6GJQsqaUBKTNV-1">
          <mxGeometry x="705.5" y="1630" width="191" height="150" as="geometry" />
        </mxCell>
        <mxCell id="5ccJhqDXox4A3Kf87yha-71" style="edgeStyle=orthogonalEdgeStyle;rounded=0;orthogonalLoop=1;jettySize=auto;html=1;fontColor=#CC0000;strokeWidth=2;align=left;exitX=0.535;exitY=1.01;exitDx=0;exitDy=0;exitPerimeter=0;" edge="1" parent="WIyWlLk6GJQsqaUBKTNV-1" source="5ccJhqDXox4A3Kf87yha-72">
          <mxGeometry relative="1" as="geometry">
            <Array as="points">
              <mxPoint x="1066" y="2090" />
              <mxPoint x="600" y="2090" />
            </Array>
            <mxPoint x="600" y="1965" as="targetPoint" />
          </mxGeometry>
        </mxCell>
        <mxCell id="5ccJhqDXox4A3Kf87yha-78" value="" style="edgeStyle=orthogonalEdgeStyle;curved=1;rounded=0;orthogonalLoop=1;jettySize=auto;html=1;fontColor=#CC0000;strokeWidth=2;align=left;" edge="1" parent="WIyWlLk6GJQsqaUBKTNV-1" source="5ccJhqDXox4A3Kf87yha-72" target="5ccJhqDXox4A3Kf87yha-77">
          <mxGeometry relative="1" as="geometry" />
        </mxCell>
        <mxCell id="5ccJhqDXox4A3Kf87yha-72" value="&lt;font face=&quot;Courier New&quot;&gt;Increase counter&lt;br&gt;Call _printspecials&lt;br&gt;Increase i&lt;br&gt;&lt;/font&gt;" style="rounded=1;whiteSpace=wrap;html=1;absoluteArcSize=1;arcSize=14;strokeWidth=2;strokeColor=#00CCCC;" vertex="1" parent="WIyWlLk6GJQsqaUBKTNV-1">
          <mxGeometry x="959" y="1915" width="200" height="100" as="geometry" />
        </mxCell>
        <mxCell id="5ccJhqDXox4A3Kf87yha-73" value="&lt;b&gt;TRUE&lt;/b&gt;" style="edgeStyle=orthogonalEdgeStyle;curved=1;rounded=0;orthogonalLoop=1;jettySize=auto;html=1;fontColor=#CC0000;strokeWidth=2;align=left;" edge="1" parent="WIyWlLk6GJQsqaUBKTNV-1" source="5ccJhqDXox4A3Kf87yha-75" target="5ccJhqDXox4A3Kf87yha-72">
          <mxGeometry x="-0.6667" y="15" relative="1" as="geometry">
            <mxPoint as="offset" />
          </mxGeometry>
        </mxCell>
        <mxCell id="5ccJhqDXox4A3Kf87yha-79" value="&lt;b&gt;FALSE&lt;/b&gt;" style="edgeStyle=orthogonalEdgeStyle;rounded=0;orthogonalLoop=1;jettySize=auto;html=1;entryX=0;entryY=0.5;entryDx=0;entryDy=0;entryPerimeter=0;fontColor=#CC0000;strokeWidth=2;align=left;exitX=0;exitY=0.5;exitDx=0;exitDy=0;exitPerimeter=0;" edge="1" parent="WIyWlLk6GJQsqaUBKTNV-1" source="5ccJhqDXox4A3Kf87yha-75" target="5ccJhqDXox4A3Kf87yha-27">
          <mxGeometry x="-0.8879" y="-15" relative="1" as="geometry">
            <Array as="points">
              <mxPoint x="600" y="1965" />
              <mxPoint x="600" y="1095" />
            </Array>
            <mxPoint as="offset" />
          </mxGeometry>
        </mxCell>
        <mxCell id="5ccJhqDXox4A3Kf87yha-75" value="&lt;p&gt;&lt;font face=&quot;Courier New&quot;&gt;Is special_char equal to &#39;\&#39; ?&lt;/font&gt;&lt;/p&gt;" style="strokeWidth=2;html=1;shape=mxgraph.flowchart.decision;whiteSpace=wrap;strokeColor=#990000;" vertex="1" parent="WIyWlLk6GJQsqaUBKTNV-1">
          <mxGeometry x="700" y="1880" width="200" height="170" as="geometry" />
        </mxCell>
        <mxCell id="5ccJhqDXox4A3Kf87yha-77" value="_printspecials" style="verticalLabelPosition=bottom;verticalAlign=top;html=1;shape=mxgraph.flowchart.on-page_reference;fontColor=#CC0000;strokeWidth=3;strokeColor=#99004D;" vertex="1" parent="WIyWlLk6GJQsqaUBKTNV-1">
          <mxGeometry x="1260" y="1932.5" width="70" height="65" as="geometry" />
        </mxCell>
      </root>
    </mxGraphModel>
  </diagram>
</mxfile>
